<svg id="Layer_1"  height="48" data-name="Layer 1" xmlns="http://www.w3.org/2000/svg" viewBox="0 0 546.93 693.3"><path d="M387.05,205.68A68.73,68.73,0,0,1,391.56,217c2.38,8,6.28,15.47,9.46,23.2,1.24,3,2.58,6,3.78,9.06a16.38,16.38,0,0,1,.95,3.59c.2,1.28,0,2.51-1.5,3-1.88-.08-2.6-1.61-3.41-2.92a131.11,131.11,0,0,1-7.16-13.83c-1-2.21-2.09-4.41-3.3-6.53,1.55,25.16,1.07,50.32,2.31,75.84,5.57-.42,10.69-.89,15.81-1.18s10.06.91,15.32,1.33c4.16-8,8-15.84,11.83-24.13-1.76.19-2.72,1.19-3.75,1.94-3.74,2.73-7.41,5.55-11.14,8.29-1,.76-2.06,1.8-3.6,1.25-.53-1.6.47-2.51,1.29-3.34,1.5-1.53,3.09-3,4.73-4.36q8.31-7,16.69-13.85c1.18-1,2.34-2.18,4.16-2,1.84,1.2,1.1,3,.89,4.59,1.12.42,1.48-.5,2-.94a48,48,0,0,1,8.74-5.79,13.62,13.62,0,0,1,3.15-1.19c2.06-.46,3.2.32,3.77,2.35a10,10,0,0,1-.36,5,36.66,36.66,0,0,1-3.57,8.76,88.35,88.35,0,0,0-5.07,10.34c-.91,2.45-.89,2.8-.09,5.22,2,.68,3.44-.6,4.86-1.63A103.77,103.77,0,0,0,470,288.81a44.18,44.18,0,0,1,8-6.74c2.07-1.24,2.33-1.22,4.73-.11.47,2.26-1.18,3.73-2.31,5.31a22.49,22.49,0,0,0-4.1,8.1c-.27,1.21-.64,2.45.63,3.37,4.27-.81,11.34-9.34,12.6-15.21-.9-1.32-2.44-1.94-3.53-3.08-1.24-1.29-2.11-2.7-1.47-4.56a4.66,4.66,0,0,1,4-3.19,9.2,9.2,0,0,1,8.06,2.65c.81.78,1.25,1.9,2.56,2.59,6.8-.9,13.32-3.87,20.47-5.56,1.33,5.55-2.35,10.19-1.66,15.18,1.77.54,3-.23,4.07-.9,8-4.83,16.82-7.69,25.3-11.37a27.29,27.29,0,0,1,3.87-1.25c5.56-1.48,9.31-.24,13.21,4.36,0,1.55-1.17,2.61-2,3.79a64.33,64.33,0,0,0-7.26,13c-.58,1.54-1.3,3.09-.77,4.92,2.07.16,3.42-.93,4.73-1.91a62.2,62.2,0,0,0,10.83-10.68c4-4.89,7.92-9.87,11.92-14.77a45,45,0,0,1,3.49-3.69c1.13-1.09,2.43-1.59,4-.65.9,2.79-2,5.1-.83,8.16,4,.51,6.36-3.34,10.15-4-.1,3.37-.89,6.16-3.25,8.41a91.52,91.52,0,0,0-9.42,10.64,7.35,7.35,0,0,0-1.42,7.23c.75.37,1.15-.13,1.54-.49,7.87-7.08,16.94-12.39,26.08-17.58a119.68,119.68,0,0,1,12.62-6.55c4.29-1.81,7.07-1.47,9.32,1s2.15,5.32-.19,9.41c-.78,1.37-1.75,2.63-2.54,4a14.77,14.77,0,0,0-2.07,10.26,18.61,18.61,0,0,0,3.23-3.64,116.38,116.38,0,0,1,13.05-14.66,46.8,46.8,0,0,1,11.42-7.83c1.11-.54,2.2-1.2,3.52-.94,3,2.08,3.7,3.77,2.68,7.12a36.5,36.5,0,0,1-3.51,7.32c-1.8,3.14-3.64,6.25-5.41,9.4A10.16,10.16,0,0,0,653,299.4c1.13.51,1.54-.39,2.06-.85a145.55,145.55,0,0,0,19.39-21.22,35.27,35.27,0,0,1,4.81-5.68c1.63-1.42,1.92-1.43,4.3-.53.62,4.05-4.24,6-4.06,9.91,1.49,1.6,3.21,1.09,4.81.72A32.35,32.35,0,0,0,697.17,276a9.21,9.21,0,0,1,3.22-1.82c1.29-.33,2.66-.76,3.81.61.14,1.91-1.27,3-2.42,4.18a22.83,22.83,0,0,0-5,8.36c-.27.74-.63,1.47-.15,2.22a.82.82,0,0,0,1,.25C710.12,284.25,722.25,278,732,268c4.18-4.29,7.72-9.14,11.6-13.71a37.4,37.4,0,0,1,8.29-7.44c2.61-1.66,3.76-1.45,5.86.7.1,1.52-1,2.44-1.84,3.47-2.55,3.17-5.49,6-8.33,8.9-4.43,4.52-9,8.84-13.25,13.58a4.12,4.12,0,0,0-1.45,2.15c3.51-.72,6.48-3.72,10.33-2.6.36,2.38-.84,3.69-1.94,4.89-2.21,2.42-4.48,4.79-6.89,7-3,2.71-3.29,6-2.63,9.63a3.92,3.92,0,0,0,.56,1.08c1.12.43,1.56-.36,2.12-.87A180.35,180.35,0,0,1,753.3,280a21.22,21.22,0,0,1,8.31-3.67,7.52,7.52,0,0,1,3.68.11c3,.88,4.2,2.95,3.28,6a21.58,21.58,0,0,1-3.28,6.29,29.67,29.67,0,0,0-3.33,5.88c-.61,1.48-1.07,3-.31,4.57,1.28,1,2.59.46,3.88.12a121,121,0,0,0,21.69-7.65,42.18,42.18,0,0,1,4.07-1.64c1.06-.37,2.17-.73,3.27.23.16,1.86-1.44,2.39-2.6,3.1a78.41,78.41,0,0,1-13.53,6.21,95.37,95.37,0,0,1-15.84,4.87c-4.25.8-6.43-1.12-6.39-5.45,0-1.94.95-3.67,1.2-6-5.24,1.82-9,6.14-13.85,6.87-2.45-.12-2.63-2.13-3.8-3.25-3.17,1.07-4.74,4.62-8.09,5.22-2.3-.49-3.06-2.29-3.63-4.14a41.88,41.88,0,0,1-1.57-8.31c-.09-1,.07-2-1-2.91-4.36,3.37-7,8.75-12.75,11.13-1-3.42,1.11-5.31,2.49-7.32s3.19-4.07,5-6.3c-1-.41-1.63.14-2.23.48a121.18,121.18,0,0,1-19.21,9.24c-4.3,1.56-7.53,4.49-10.35,7.95a18.79,18.79,0,0,1-5.92,5c-3.12,1.62-5.43,1.13-7.1-1.4-2.19-3.33-1.88-6.1,1-8.37a34.38,34.38,0,0,1,7.17-3.79c1.85-.84,3.74-1.6,5.52-2.57a6,6,0,0,0,3.27-6c-1.08-.9-1.92-.48-2.77-.17-1.59.56-3.19,1.13-4.79,1.67a11.84,11.84,0,0,1-9.46-.89c-2.79.84-4.21,3.13-5.89,5a91.53,91.53,0,0,1-11.63,11.33,25.43,25.43,0,0,1-5.13,3.29c-1.46.66-3,1.17-4.56.23-1.39-1.4-1.06-3.08-.61-4.73a32.47,32.47,0,0,1,3.72-8A116.25,116.25,0,0,0,657,281.91a13.09,13.09,0,0,0,1.42-4.09c-1-.72-1.57.08-2.17.46-6.44,4.07-12.36,8.71-16.68,15.14-1.64,2.44-3.48,4.73-5.27,7.06a13.27,13.27,0,0,1-1.88,1.94c-1.54,1.33-3.13,3-5.37,2s-2.51-3.09-2.72-5.12a47.68,47.68,0,0,1,0-5.08c-1.48,0-1.78,1-2.35,1.61-3,3.19-5.86,6.59-9.64,9-2.33,1.48-4.76,2.62-7.68,1.76-1.77-1.15-1.89-2.95-1.76-4.79A22.64,22.64,0,0,1,606,291.56c.48-.82,1.41-1.49,1-3.15a136.84,136.84,0,0,0-27,21c.91,1.38,1.9,1.05,2.75,1.07,3.95.08,7.9.05,11.86.15,45.06,1.11,90.13.12,135.2.67,9.7.12,19.41.39,29.09,1.12a24.92,24.92,0,0,0,7-.1c2.12-2.14.27-5.91,3.46-7.59,3,1.47,1.32,4.74,2.63,6.8,3.33,1.61,36.94,2.28,46.7.93-9.43-4-11.08-5-13.15-8,1.09-2.11,3-1.64,4.65-1.16A55.67,55.67,0,0,1,820.71,308c1.77.95,3.69,1.75,4.93,3.3a3,3,0,0,1-.74,2.94,180.66,180.66,0,0,1-16.56,20.57,4,4,0,0,1-2.27,1.49c-1.63-.39-1.67-1.52-1.16-2.85a10.43,10.43,0,0,1,2.57-3.53,51,51,0,0,0,6.34-8.36,3.43,3.43,0,0,0,.79-2.91c-13.39-2.29-27-1.29-40.32-2-1.09,1.26-.79,2.43-.78,3.53.09,10.06,1.09,20.05,1.76,30.08.51,7.75,1.2,15.54.5,23.34-.06.67-.07,1.35-.09,2-.83,38.85-1.09,77.71-.58,116.56.28,21.34.13,42.69.56,64,.39,19.54.32,39.08.78,58.61.27,11.75.16,23.5.63,35.23.41,10.28.38,20.55.64,30.82.39,14.79.75,29.58,1.37,44.35.53,12.86.84,25.73,1.43,38.59.36,7.89,0,15.82,1.12,23.67.14,1,.26,2,.49,3a3.91,3.91,0,0,0,4.08,3.34c4.29.06,8.54.76,12.85.69,9.94-.19,19.86.52,29.79.77a49.63,49.63,0,0,1,9.4,1.1c1.1.24,2.26.37,2.91,1.79-.63,2-2.43,2.09-4,1.91-4.61-.53-9.27-.13-13.86-.67-5.85-.69-11.72-.53-17.58-1-7.08-.53-14.19-.73-21.28-1.38a1.91,1.91,0,0,0-1.57.43c-.89,3.4,2.49,75.6,4,82.49,1.12-2.85,2.08-5.22,3-7.61,2.09-5.49,4.14-11,6.61-16.33.63-1.38,1.14-3,2.72-3.46a1.85,1.85,0,0,1,1.23,2.59,34.8,34.8,0,0,1-1.4,4.52c-3.84,9.43-6.85,19.13-9.81,28.86a45.07,45.07,0,0,1-2.74,7.29c-.65,1.3-1.26,2.67-2.78,3.13-1.77-.34-2.05-1.75-2.39-3a172.94,172.94,0,0,0-13.05-33.74c-.85-1.68-1.85-3.48.14-5.11,2,0,2.79,1.43,3.69,2.69a57.48,57.48,0,0,1,6.23,12.38l2,4.93c1.11-3.45-1.4-72.13-2.75-78.12-1.3-1.21-3-.78-4.48-.77q-29.15.31-58.28.69c-4.74.05-9.49,0-14.23.08-24,.59-48.11.44-72.16.82-14,.22-28,.46-42,.22-14.91-.26-29.83,0-44.72-.63-10-.41-20.09-.78-30.11-1-16.59-.3-33.17.55-49.74,1.68-12.15.83-24.31,1.84-36.53,1.65-3.81,0-7.63.4-11.3.61-1.38,1.75-.9,3.49-.72,5.11,1.4,12.8,2.48,25.61,3.31,38.46.72,11,1.63,22.06,2.43,33.09a22,22,0,0,1,0,3.72c-.11,1.25-.46,2.47-2.15,2.78-1.81-.83-1.79-2.67-2-4.26-.5-4-.94-8.08-1.22-12.13-.59-8.67-1-17.35-1.59-26-.74-10.47-1.61-20.93-2.42-31.4-.12-1.57-.19-3.15-.29-4.73a9.43,9.43,0,0,0-1-4.5c-1.07-1-2.37-.85-3.59-.83-12.87.14-25.73.57-38.59,1.12-2.37.1-4.74.15-7.11.21a375,375,0,0,0-39.49,2.82c-4,.53-8,1.45-11.89,2.19-.27,1.15.55,1.22,1.12,1.45a92.86,92.86,0,0,0,16.6,4.68,34.47,34.47,0,0,1,6.83,1.91c1.23.54,2.55,1.05,2.64,2.73-.92,1.58-2.32,1-3.62.84-8.5-1.29-16.78-3.57-25.14-5.45-3.63-.82-7.24-1.67-10.65-2.46-1.77-3.1-1.42-4.87,1.62-6.14,6.55-2.75,12.06-7.07,17.68-11.23,2.08-1.54,4-3.26,6-5a18.26,18.26,0,0,1,5.12-3.26c.93-.4,1.89-.81,3,.14.08,1.73-1.23,2.74-2.38,3.73-2.4,2.06-4.89,4-7.35,6a38.49,38.49,0,0,0-6.29,5.92c.34,1,1,.73,1.47.6,4.17-1.15,8.47-1.3,12.73-1.71,3.25-.31,6.53-.46,9.8-.64,7-.4,14-.58,21-.82,14-.49,28-.94,42-1.48,2.58-.09,5.14-.52,7.51-.78,1.05-1,.73-2.06.6-3-1.37-11-2.34-22-3.23-33-.74-9.11-1.66-18.21-2.41-27.32q-.89-11-1.55-22c-.67-10.92-1.26-21.85-1.88-32.79-.31-5.52-.46-11-.63-16.58-.34-11.28-.77-22.57-1.06-33.86-.34-13.21-.25-26.43-.72-39.63-.31-8.58-.13-17.17-.63-25.73-.55-9.46-.7-18.94-1.59-28.4-.92-9.87-.89-19.84-1.09-29.78-.29-14-.68-28-1.67-42-.09-1.24-.11-2.49-.12-3.73-.19-28.8-.79-57.6-1-86.4-.11-16.26-.4-32.52-.62-48.78,0-2.58-.46-5.15-.68-7.39-1.15-1.29-2.34-1.13-3.44-1.08-8.46.36-16.91.71-25.37,1.15a129.46,129.46,0,0,1-27.68-1.4c-3.59-.58-7.18-.55-10.75-.95a10.78,10.78,0,0,1-3.6-.86c-1.05-.51-1.95-1.16-1.85-2.62,1.14-1.53,2.86-1.57,4.54-1.62a131.94,131.94,0,0,1,14.86,1c7.3.64,14.6,1.39,21.93,1.6a77.23,77.23,0,0,0,14.15-1.17,76,76,0,0,1,11.47-.85c1.34,0,2.73.19,3.87-.72,1.94-5.47,0-73.05-2.5-85.58-1.25.88-1.6,2.21-2.09,3.37-1.79,4.27-3.48,8.59-5.25,12.86a39,39,0,0,1-2.06,4.27c-.62,1.08-1.38,2.13-3.07,1.7-1.51-1.54-.77-3.31-.2-5,1.62-4.81,3.36-9.58,5-14.38q2.34-6.72,4.61-13.46a21.63,21.63,0,0,1,3.59-7.24Zm25.53,591.77a4.67,4.67,0,0,0,3.18.28,50,50,0,0,1,8.11-.49c7.69-.08,15.3-1,22.93-1.82s15.24-1.79,22.95-1.64c20.1.38,40.2.41,60.3.53,46.07.26,92.16.55,138.23-.21,30.72-.51,61.44.14,92.15-.87,4.18-.14,8.36-.07,12.54-.13,1.22,0,2.51.16,3.68-.93.82-1,.6-2.42.62-3.75.05-5.64-.24-11.28-.44-16.92-.44-12.64-.86-25.27-1.35-37.91-.63-16.24-1-32.49-1.5-48.74-.18-5.87-.28-11.74-.46-17.61q-.64-21-1.49-42c-.53-13.43-.39-26.87-.58-40.31-.62-44.15,0-88.32-.64-132.48-.49-35.11-.2-70.24-.92-105.36-.17-8.25-.8-16.46-1.54-24.66A9.44,9.44,0,0,0,767.3,318a6.86,6.86,0,0,0-4-.95c-4.73-.28-9.46-.54-14.19-.87-14-1-27.91-2-41.93-1.85q-19,.18-37.93.39c-29.37.32-58.74.24-88.1.35-1.68,0-3.4-.28-5,.41-1.17.92-1.61,2.24-2.28,3.41-3,5.3-5.94,10.65-9.07,15.89A153.34,153.34,0,0,1,554.4,350.6c-.87,1.12-1.57,2.53-3.25,2.75-1.7-.44-2-1.71-1.77-3.16a21.14,21.14,0,0,1,1-3.93,71.9,71.9,0,0,1,5.41-10.91c3.13-5.38,6.84-10.36,10.35-15.49.66-1,1.62-1.87,1.62-3.24a5,5,0,0,0-1.1-.29c-12.77-.05-25.53-.2-38.28.35a87.12,87.12,0,0,1-18.91-.82,304.35,304.35,0,0,0-40.71-4.12c-9.59-.38-19.21-.29-28.8,0-4,.12-8.13.11-11.88,1.42a11.51,11.51,0,0,0-2.05,3.32c-4,8-7.56,16.16-11.08,24.36a60.4,60.4,0,0,1-4.42,8.76c-.72,1.11-1.35,2.41-3,2.42-1.6-1.71-1.65-1.72-1.3-3.43a32.5,32.5,0,0,1,2.38-6.69q5.7-12.66,11.34-25.35c.52-1.18,1.44-2.36.56-4.31-9-.93-18.07-1.89-26.75,1.95a8.56,8.56,0,0,0-.3,4.65,148.7,148.7,0,0,1,.94,15.2c.53,14,.37,28,.64,42,.55,28,.15,56,.81,84q.56,23.35,1.28,46.72c.61,18.39,1.26,36.77,2.1,55.15.54,12,.95,23.92,1.33,35.88q.76,24.7,1.39,49.43c.32,12.41.59,24.83.89,37.25,0,.56.05,1.12.09,1.69.76,11.94,1.43,23.88,2.49,35.8.85,9.66,1.41,19.35,2.25,29,1.25,14.51,2.63,29,3.94,43.5A4.15,4.15,0,0,0,412.58,797.45ZM582.3,278.13c-1.62,2.06-3.3,4.18-5,6.3a128.33,128.33,0,0,1-11,12.85,34.3,34.3,0,0,1-7.75,6c-2.73,1.45-5.59,2.36-8.74.9-1.23-2.92.22-5.8,0-9.13-1.5,1.22-2.8,2.23-4,3.31a60.08,60.08,0,0,1-7.26,5.55c-2.57,1.57-5.44,3-8.18.94s-1.9-5.32-1.1-8.16a27.56,27.56,0,0,1,4.65-9c.5-.67,1.4-1.15,1.34-2.16-.49-.36-.9-.12-1.29.07a127.37,127.37,0,0,0-13.74,7.33,18.23,18.23,0,0,0-6.28,6.51,36.4,36.4,0,0,1-5.59,7.64c-2.27,2.33-6.95,2.17-9.28-.16-1.66-1.66-1.2-4.07,1.33-6.86.45-.5.94-1,1.44-1.43a52.31,52.31,0,0,1,5.73-4.2c4.94-3.5,5.62-8.8,6.39-14.13a6.62,6.62,0,0,0-4.67-.3c-2.87.58-5.72,1.3-8.61,1.82a9.42,9.42,0,0,0-7.26,5.39,50.83,50.83,0,0,1-10.92,14.13,10.63,10.63,0,0,1-6.82,3.28,8.88,8.88,0,0,1-4.63-3.86c-1.54-2.23.17-4.51.24-6.92a8,8,0,0,0-3.16,2.31c-1.51,1.36-2.91,2.85-4.47,4.15-2.78,2.32-5.68,4.49-9.32,5.33-4.62,1.07-7.61-1.82-6.59-6.41a38.14,38.14,0,0,1,2.87-8c1.88-4,3.79-7.95,5.6-12,.52-1.16,1.35-2.35.87-3.9-1.57-.09-2.65.78-3.73,1.5A40.72,40.72,0,0,0,443,287a155.26,155.26,0,0,0-11.63,19.86,1.36,1.36,0,0,0,.09,1.54,15.24,15.24,0,0,0,4.8-.08,165.7,165.7,0,0,1,18.22-1.19c10.05,0,20.08.74,30.08,1.5,8.07.61,16.21.64,24.14,2.81a34.35,34.35,0,0,0,11.09,1c6.75-.4,13.51-.81,20.25-1.47a105.21,105.21,0,0,1,24.64.48c6.31.87,9.43-.56,12.46-6.18.59-1.1,1.15-2.21,1.67-3.33.32-.69.83-1.43,0-2.12-1.48-.25-2.78,1.08-4.28.45-1.3-1-.91-2.24-.4-3.38a9.34,9.34,0,0,1,4.23-4.69c4.35-2.24,6.38-6.44,8.94-9.87a7.23,7.23,0,0,0-2.42-3A3.59,3.59,0,0,0,582.3,278.13Zm-49.61,23.3c4.59-.89,10.87-5.64,19.3-14.6,1.85-2,3.92-3.89,4.7-6.77C546.77,278.52,532.26,291.53,532.69,301.43Zm95.12-21.26c-2-.88-3.79.15-5.37,1-7.47,4-12.24,10.43-15.39,18.14a3,3,0,0,0,.28,3.44C612.32,301,627.16,284.6,627.81,280.17ZM745.56,294c5-1.57,14.7-8.66,16.28-11.71C756.5,282.81,747.58,289.08,745.56,294ZM687,297c-3.7.68-5.84,1.6-7.2,3-1.07,1.1-1.84,2.25-.23,3.71C682.53,302.27,684.29,299.66,687,297Zm-183.91,7.8a6.87,6.87,0,0,0,4.57-4.21A7,7,0,0,0,503.08,304.81Z" transform="translate(-294.22 -205.68)"/><path d="M570.59,254.65c-.13-2.46,1.54-3.38,3-4.34a79.06,79.06,0,0,1,12.88-6.69,66.63,66.63,0,0,1,11.19-3.77c1-.23,1.94-.59,2.82-.1.56.94,0,1.45-.53,1.8-1.54.95-3.08,1.88-4.68,2.71-6.6,3.42-13.35,6.54-20.17,9.49C573.78,254.32,572.48,255.06,570.59,254.65Z" transform="translate(-294.22 -205.68)"/><path d="M783.15,266.26c-.58-1.51.4-2.38,1.43-3a21.34,21.34,0,0,1,3.91-2,168.67,168.67,0,0,1,19.68-5.91c1.75-.41,3.5-.76,5.28.06.19,1.75-1.13,2.15-2.2,2.59-2.4,1-4.82,1.89-7.27,2.7-5.66,1.88-11.33,3.69-17,5.49C785.73,266.58,784.45,267.37,783.15,266.26Z" transform="translate(-294.22 -205.68)"/><path d="M598.28,676.86c-2.14,1.28-3.87.32-5.59-.53-4.12-2-5.1-1.86-7.89,1.9a51.75,51.75,0,0,0-6.6,12.93c-3.34,8.91-6,18-6,27.63a23.6,23.6,0,0,0,.2,3,2.42,2.42,0,0,0,.42.85c6.72,2.09,19.23-8,19-15.26-1.67-1.19-2.89-.33-4.07.9s-2.19,2.61-4,2.64c-2.16-3.16-1.13-7.81,2-9.26a16.66,16.66,0,0,1,9.26-1.32c2.78.35,4.46,2.26,4.94,5.26a8.24,8.24,0,0,1-.63,4.64c-4.43,10-11.09,17.51-22.59,19.28-.34.05-.67.11-1,.15-6.73.73-9.06-1-10.1-7.71-.92-5.89-.12-11.71.84-17.5a71.17,71.17,0,0,1,6.11-20c2.57-5.22,6.37-9.58,10.06-14,3-3.58,7.08-4.19,11.43-3.09C598.83,668.66,600.35,672,598.28,676.86Z" transform="translate(-294.22 -205.68)"/><path d="M472.28,513.38c1.42,1.43,1,2.9.7,4.3a58.21,58.21,0,0,0-1.22,12.77,39.7,39.7,0,0,0,2.92,14.14,41.39,41.39,0,0,1,1.61,24.94c-1.72,7-10.65,15.27-20.81,12.69a10,10,0,0,1-4.46-2.3c-5.41-5-7.71-11-6-18.29a43.63,43.63,0,0,1,5.81-12.9c1.49-2.39,3.07-4.73,4.72-7a73.91,73.91,0,0,0,9.11-16.55,64.21,64.21,0,0,1,4.09-8.53C469.55,515.27,470.31,513.86,472.28,513.38Zm-6.18,24.07c-.41.08-.57.06-.62.12-5,7.24-10,14.44-13.52,22.53-2.59,6-.84,10.45,4.05,15.1a4,4,0,0,0,4.41.82,20.54,20.54,0,0,0,7-4,8.85,8.85,0,0,0,3.06-6.84,69,69,0,0,0-1.06-13.78C468.45,546.72,467.21,542.09,466.1,537.45Z" transform="translate(-294.22 -205.68)"/><path d="M476.63,668.39c4.68-.48,10.46,2.51,15.65,7,8.08,7.07,13.4,15.44,12.93,26.69-.46,10.85-8.78,21.79-19.14,25-12.1,3.77-23.34,2.12-33-6.13-9.22-7.86-12.43-18.22-10.63-30.12a17.18,17.18,0,0,1,4.11-8.79C453.84,673.77,462.81,668.69,476.63,668.39Zm24.8,31.27a17,17,0,0,0,0-1.83,20.28,20.28,0,0,0-.47-2.32c-2.35-8.4-7.4-14.83-14.54-19.71a13.86,13.86,0,0,0-4.61-2.06c-12.59-2.93-24.49.78-31.9,12.1-3.78,5.77-4.92,12.1-2.38,18.72a35.57,35.57,0,0,0,6.7,10.9c7.35,8.3,20.75,11.83,30.82,7.91a25.8,25.8,0,0,0,16-17.6,4.44,4.44,0,0,0-.07-3.83H490.61c-2.6,0-5.19,0-7.78,0-1.1,0-2.35,0-2.37-1.7.27-.23.5-.59.77-.63C487.84,698.61,494.46,699.31,501.43,699.66Z" transform="translate(-294.22 -205.68)"/><path d="M602.92,445.85c-1.36-1.34-1-2.82-.85-4.26a46,46,0,0,1,3.09-10.72c1.77-4.52,3.6-9,5.29-13.57a32.58,32.58,0,0,0,2.38-11.54,8.67,8.67,0,0,1,6.16-8.82c5.57-1.95,11.22-2.44,16.91-.35a7.86,7.86,0,0,1,3.61,2.4c2.64,3.3,1.33,7.14-2.8,8-2.31.47-4.72.53-6.6,2.35-.42,2,.64,3.53,1.46,5.08,2.69,5.1,5.5,10.13,8.21,15.21a77.83,77.83,0,0,1,5.29,12.09,8.4,8.4,0,0,1,.73,3.84c-2.45,1.68-4.9,1.4-6.52-.79a14.52,14.52,0,0,1-1.68-3.31c-3.94-10.1-8.12-20.09-12.79-29.89-2.46-5.15-1.6-6.58,4-7.45,4.28-.67,5.11-1,7-2.75-.11-.9-.87-.93-1.5-1.09a19.27,19.27,0,0,0-11.32.64,5.73,5.73,0,0,0-3.92,5,212.86,212.86,0,0,1-7.65,30.87,16.37,16.37,0,0,1-5.26,7.75A3.88,3.88,0,0,1,602.92,445.85Z" transform="translate(-294.22 -205.68)"/><path d="M661.06,696.54c-4.5,2.63-10.12,1.07-14.52,3.83-2.66,5.24-4.31,14.92-3,17.92,2.68.28,5.22-.87,7.86-1.25a71.15,71.15,0,0,1,10.81-.44c3.38,0,4.56,1.31,5,5-.85,1.78-2.58,1.61-4.1,1.64a118.29,118.29,0,0,0-23.52,2.26,9.75,9.75,0,0,1-2,.2,5.55,5.55,0,0,1-1.16-.18c-1.69-1-1.59-2.5-1.57-4a44.5,44.5,0,0,1,1.8-10c1.45-5.8,3-11.59,4.67-17.32,1.62-5.52,3.17-11.06,4.35-16.7,1.11-5.29,2.77-6.75,8-6.92a84,84,0,0,1,22.18,2c1.81.42,3.76.84,4.78,2.64-.1,1.59-1.21,2-2.32,2.2a22.9,22.9,0,0,1-6.72.44c-4.37-.45-8.76-.84-13.15-1-4.77-.19-6,.65-7.64,5-1.06,2.73-1.91,5.55-2.77,8.35-.32,1-.85,2.15.15,3.4,1.44.77,3.12.46,4.76.16a20.42,20.42,0,0,1,5.4-.27C659.87,693.73,661.13,694.17,661.06,696.54Z" transform="translate(-294.22 -205.68)"/><path d="M433,394.38c-1-2.43.18-3.53,1.09-4.59,2.87-3.33,5.89-6.55,8.76-9.89a53.25,53.25,0,0,0,4.06-5.4,12.84,12.84,0,0,0,2.2-6.33,7.58,7.58,0,0,1,3.57-6.13c2.81.35,3.72,1,3.56,3.44-.25,3.68,1.4,6.52,3.25,9.39a105,105,0,0,0,8.58,10.91c1.08,1.26,2.32,2.47,2.35,4.36-1.45,1.25-2.6.36-3.65-.42-2.49-1.83-4.29-4.32-6.15-6.72s-3.64-4.82-5.48-7.29a3.52,3.52,0,0,0-1.23,2.92,45.25,45.25,0,0,0,.54,14.82,12.86,12.86,0,0,0,3.91,6.24c2.89,2.86,5.88,5.61,8.77,8.47,1.44,1.43,2.75,3,4.08,4.52a1.85,1.85,0,0,1,.52,2.31c-1.53.63-2.65-.51-3.79-1.29-3.47-2.36-6.33-5.45-9.55-8.11-1-.84-1.85-2-3.39-2.07-1,.9-.63,2.11-.64,3.17-.07,5-.06,9.94-.07,14.91a21.09,21.09,0,0,1-.84,6c-.5,1.67-1.48,2.76-3.35,2.24-1.24-1.23-.92-2.65-.92-4,0-6.67.12-13.33.16-20a10.45,10.45,0,0,0-.46-4.4c-1.64,0-2.14,1.24-2.8,2.18-1.77,2.48-3.43,5-5.2,7.52a20.67,20.67,0,0,1-2.25,2.53,2.59,2.59,0,0,1-3.08.79c-1.23-.94-.95-2.14-.48-3.34a10.32,10.32,0,0,1,2.23-3.37c3.7-3.84,6.46-8.42,10-12.41a7.17,7.17,0,0,0,1.8-4,77.58,77.58,0,0,0,.13-12.57c-2.8,3.35-5,6.25-7.49,8.93S437.08,393.55,433,394.38Z" transform="translate(-294.22 -205.68)"/><path d="M649.94,564.83c.7-7.71,2.08-16.49,5.63-24.76a14.47,14.47,0,0,1,18.57-7.6c3.81,1.47,5.88,4.36,6.8,8.23a15.57,15.57,0,0,1,.22,6.37,64.89,64.89,0,0,1-11.48,27.51,17.82,17.82,0,0,1-5.79,5.1c-5.15,2.84-9.74,1.3-12.22-4.09C650.54,573.14,649.9,569.62,649.94,564.83Zm9.57,10.56c3-.75,4.43-1.79,6.22-4.85a73.14,73.14,0,0,0,8.36-22.4,20.78,20.78,0,0,0,0-7.08c-.33-2.32-1.49-3.45-3.39-3.59a10.63,10.63,0,0,0-10.5,7,41.08,41.08,0,0,0-1.59,7.26c-.91,5.79-2,11.57-1.68,17.47C657.09,571.57,657.32,573.92,659.51,575.39Z" transform="translate(-294.22 -205.68)"/><path d="M610.54,573.58a4,4,0,0,0,3.44.4c4.87-1,9.8-1.59,14.74-2.11a19.4,19.4,0,0,1,6,.51c1.44.3,2.79.94,3.14,2.53-.28,1.63-1.49,2-2.67,2.43a23.51,23.51,0,0,1-6.64,1.21,101.91,101.91,0,0,0-21.07,3c-2.25.56-2.25.55-4.61-.27-1.43-1.84-.63-3.91-.26-5.82,1.5-7.64,3.08-15.27,4.81-22.86,1.32-5.83,2.89-11.61,4.39-17.4a23.17,23.17,0,0,1,1.31-3.84c1.27-2.78,2.74-3.11,5.73-1.36.65,2.4.21,4.86-.22,7.29a211.44,211.44,0,0,1-6.75,26.57c-.54,1.73-1.07,3.46-1.47,5.22A6.55,6.55,0,0,0,610.54,573.58Z" transform="translate(-294.22 -205.68)"/><path d="M559.47,448.2c-1.15-1.24-.9-2.47-.71-3.71a57.14,57.14,0,0,1,3.34-12c2.31-6.12,4.61-12.24,6.38-18.55a79.75,79.75,0,0,1,3.24-8.17c.41-1,1.17-2,.93-3.24-.92-1.14-2.26-.68-3.43-.73-4.05-.16-8.13.21-12.14-.7-2.07-.47-2.3-.62-3.51-2.66.23-1.66,1.53-2.1,2.88-2.38a21.08,21.08,0,0,1,4-.58c8.11-.06,16.22-.6,24.33.32a80.21,80.21,0,0,1,10.7,1.45c1.3.33,2.64.62,3.36,1.88-.38,1.65-1.72,1.81-2.88,2.1a36.12,36.12,0,0,1-9,1.23c-2.59,0-5.17,0-7.45,0-1.74,1.27-1.89,2.94-2.37,4.4-4.09,12.43-8.08,24.88-13,37a26.7,26.7,0,0,1-1.24,2.78C562.07,448.05,562,448.05,559.47,448.2Z" transform="translate(-294.22 -205.68)"/><path d="M610.19,729.45c-1.36-.66-1.28-1.69-1.26-2.72a170.34,170.34,0,0,1,10.38-54.52c1.2-3.37,2.91-4.38,6.82-4.05,1.32,1.36.94,3.05.67,4.71a269.19,269.19,0,0,1-6.58,27.59c-1.73,6.3-3.49,12.58-4,19.15a15.3,15.3,0,0,1-2.83,7.52C612.66,728.24,611.86,729.37,610.19,729.45Z" transform="translate(-294.22 -205.68)"/><path d="M682.81,402c.85,1.12.49,2.34.19,3.54-3.26,12.88-6.46,25.78-9.85,38.62-.79,3-1.89,6-5,7.6-2.46-1.09-2.77-2.94-2.26-5.1,1.26-5.37,2.58-10.74,4.33-16A168.09,168.09,0,0,0,675,412.78a34.21,34.21,0,0,1,2.68-8.69C679,401.56,680,401.19,682.81,402Z" transform="translate(-294.22 -205.68)"/><path d="M678.48,389.28c.56-3,2.09-4.83,4.95-5.35,2.94,1.45,3.12,1.71,3.53,5.17C684,393.15,681,393.29,678.48,389.28Z" transform="translate(-294.22 -205.68)"/><path d="M630.71,656.1a4,4,0,0,1-4.13,4c-1.82-.13-3.59-2.35-3.43-4.32s1.71-3,4.18-2.93C629.62,652.91,630.77,654,630.71,656.1Z" transform="translate(-294.22 -205.68)"/><path d="M470.63,694.69a6.89,6.89,0,0,1,5.38,1.95c2,2,2.33,4.19.81,5.93-2,2.28-4.51,2.55-6.79.64a12.56,12.56,0,0,1-2.23-2.48,3.57,3.57,0,0,1,2.83-6Z" transform="translate(-294.22 -205.68)"/><path d="M469.65,675.39c1.49.51,1.43,1.59,1.52,2.58.5,5.68.24,11.1-.62,12.76-1,.17-1.37-.49-1.56-1.31C467.84,684.42,468.13,677.49,469.65,675.39Z" transform="translate(-294.22 -205.68)"/><path d="M477.88,705.21c.32.13.73.17.9.39a6.77,6.77,0,0,1,1.06,1.69c1.63,4,3.84,7.76,5.74,11.4-1,1.23-1.81,1.08-2.33.38A43.75,43.75,0,0,1,477,706.83C476.81,706.3,477,705.71,477.88,705.21Z" transform="translate(-294.22 -205.68)"/><path d="M477.32,694.34c-.5-.9-.35-1.43.05-1.87,2.11-2.33,4.2-4.69,6.39-7a8.68,8.68,0,0,1,3.65-2.36c.6-.19,1.09,0,1.6.7-.21,2-2.48,2.21-3.54,3.51a53.52,53.52,0,0,1-3.82,4.28C480.45,692.84,479.57,694.69,477.32,694.34Z" transform="translate(-294.22 -205.68)"/><path d="M471.77,707.25c1.56.62,1.59,1.57,1.27,2.43-1.47,4-2.3,8.3-4.87,11.72-1.48-.42-1.54-1.27-1.27-2C468.4,715.29,469.31,710.92,471.77,707.25Z" transform="translate(-294.22 -205.68)"/><path d="M465.25,698.64c-2.52-.09-6.51-2-11.33-5.27-.73-.49-1.65-.88-1.31-2.21,1.16-1.07,2.19-.16,3.24.4C464.62,696.32,464.62,696.32,465.25,698.64Z" transform="translate(-294.22 -205.68)"/><path d="M467.41,704.69c-1.07,2.48-4.15,4.54-9.62,7-.9.4-1.79,1.05-2.83.07-.33-1.45.86-2,1.81-2.37C460.35,707.87,463.29,704.9,467.41,704.69Z" transform="translate(-294.22 -205.68)"/></svg>